# xmcd CD database file
#
# Track frame offsets:
#	150
#	19657
#	35976
#	54041
#	74802
#	93596
#	110974
#	128532
#	145842
#	163162
#	187783
#	210161
#	233077
#	244845
#	264049
#	284374
#	307380
#
# Disc length: 4368 seconds
#
# Revision: 0
# Processed by: cddbd v1.5.1PL2 Copyright (c) Steve Scherf et al.
# Submitted via: CDex 1.51
#
DISCID=f5110e11
DTITLE=Fra Lippo Lippi - SONGS
DYEAR=1985
DGENRE=Pop
TTITLE0=Come Summer
TTITLE1=Shoudn't Have to Be Like That
TTITLE2=Even Tall Trees Bend
TTITLE3=Just Like Me
TTITLE4=Crash Of Light
TTITLE5=The Distance Between Us
TTITLE6=Regrets
TTITLE7=Leaving
TTITLE8=Coming Home
TTITLE9=Crash Of Light (LIVE)
TTITLE10=The Distance Between Us (LIVE)
TTITLE11=Everytime I See You (LIVE)
TTITLE12=Fade Away (LIVE)
TTITLE13=Shoudn't Have to Be Like That (LIVE)
TTITLE14=Even Tall Trees Bend (LIVE)
TTITLE15=Say Something (LIVE)
TTITLE16=Regrets (LIVE)
EXTD=YEAR: 1985
EXTT0=
EXTT1=
EXTT2=
EXTT3=
EXTT4=
EXTT5=
EXTT6=
EXTT7=
EXTT8=
EXTT9=
EXTT10=
EXTT11=
EXTT12=
EXTT13=
EXTT14=
EXTT15=
EXTT16=
PLAYORDER=
